<?xml version="1.0" standalone="no"?>
<!DOCTYPE svg PUBLIC "-//W3C//DTD SVG 20010904//EN"
 "http://www.w3.org/TR/2001/REC-SVG-20010904/DTD/svg10.dtd">
<svg version="1.0" xmlns="http://www.w3.org/2000/svg"
 width="1027.000000pt" height="333.000000pt" viewBox="0 0 1027.000000 333.000000"
 preserveAspectRatio="xMidYMid meet">
<g transform="translate(0.000000,333.000000) scale(0.100000,-0.100000)"
fill="#D01916" stroke="none">
<path class="shape" d="M2025 3310 c-207 -37 -335 -175 -335 -359 0 -94 24 -162 78 -223 57
-63 126 -97 299 -149 163 -49 219 -75 261 -123 75 -85 45 -212 -63 -266 -44
-22 -63 -25 -155 -25 -119 1 -163 16 -217 79 -28 31 -73 129 -73 157 0 7 -12
9 -32 5 -18 -3 -56 -8 -84 -12 -77 -9 -78 -11 -60 -88 20 -86 48 -141 100
-194 81 -85 190 -122 361 -122 180 0 288 40 378 140 61 68 82 131 82 245 0 78
-4 97 -28 147 -50 101 -126 148 -357 222 -176 56 -242 91 -270 146 -42 82 -14
182 63 222 51 26 194 37 251 18 74 -24 128 -93 142 -180 l7 -42 66 6 c127 13
124 11 116 65 -25 164 -113 274 -255 316 -67 20 -207 27 -275 15z"/>
<path class="shape" d="M18 3295 c-5 -5 -8 -296 -8 -647 l0 -638 253 0 c218 0 263 3 336 20
233 56 377 199 437 435 24 95 24 314 1 405 -42 162 -138 290 -260 350 -124 60
-194 71 -487 77 -146 3 -268 2 -272 -2z m546 -190 c114 -24 191 -82 239 -180
33 -67 47 -146 47 -275 0 -168 -39 -280 -126 -360 -88 -81 -187 -110 -386
-110 l-128 0 0 470 0 470 143 0 c85 0 169 -6 211 -15z"/>
<path class="shape" d="M1270 2655 l0 -645 100 0 100 0 0 645 0 645 -100 0 -100 0 0 -645z"/>
<path class="shape" d="M2770 2656 l0 -646 95 0 95 0 2 258 3 257 124 0 124 0 141 -257 141
-257 108 -1 c59 0 107 2 107 5 0 3 -68 129 -151 281 -83 151 -149 276 -148
278 2 1 28 17 57 35 116 73 165 168 165 321 1 185 -72 286 -243 342 -58 18
-96 21 -342 26 l-278 4 0 -646z m520 453 c97 -21 140 -79 140 -190 0 -97 -25
-149 -88 -187 -45 -26 -53 -27 -214 -30 l-168 -4 0 211 0 211 140 0 c76 0 162
-5 190 -11z"/>
<path class="shape" d="M3834 3285 c-3 -8 -4 -225 -1 -482 3 -378 7 -478 19 -518 48 -160
129 -240 285 -280 83 -22 271 -20 354 3 128 36 223 117 270 229 l24 58 3 503
3 502 -95 0 -95 0 -3 -478 -3 -478 -30 -60 c-27 -51 -38 -62 -89 -89 -54 -27
-68 -30 -155 -30 -87 0 -102 3 -156 30 -63 31 -95 69 -117 134 -8 25 -13 177
-15 504 l-4 467 -95 0 c-74 0 -96 -3 -100 -15z"/>
<path class="shape" d="M5080 2656 l0 -646 95 0 95 0 0 224 0 223 163 6 c166 5 228 17 310
59 133 68 206 219 194 408 -9 149 -63 247 -167 304 -95 52 -134 57 -422 63
l-268 5 0 -646z m500 453 c57 -12 111 -53 137 -103 27 -50 23 -188 -6 -248
-44 -92 -112 -118 -308 -118 l-133 0 0 240 0 240 130 0 c71 0 152 -5 180 -11z"/>
<path class="shape" d="M6000 3210 l0 -90 188 -2 187 -3 3 -1532 2 -1533 1930 0 1930 0 0
1625 0 1625 -790 0 -790 0 0 -645 0 -645 395 0 395 0 0 85 0 85 -295 0 -295 0
0 195 0 195 265 0 265 0 0 85 0 85 -265 0 -265 0 0 190 0 190 590 0 590 0 0
-930 0 -930 -280 0 -280 0 -2 268 -3 267 -97 3 -98 3 0 -776 0 -775 -1355 0
-1355 0 2 1433 3 1432 188 3 187 2 0 90 0 90 -475 0 -475 0 0 -90z m4040
-2550 l0 -410 -280 0 -280 0 0 410 0 410 280 0 280 0 0 -410z"/>
<path class="shape" d="M7100 2655 l0 -645 100 0 100 0 -2 643 -3 642 -97 3 -98 3 0 -646z"/>
<path class="shape" d="M7648 2655 l217 -645 124 2 123 3 204 635 c112 349 204 638 204 643
0 4 -45 7 -100 7 l-99 0 -26 -82 c-146 -477 -303 -969 -307 -962 -3 5 -42 124
-88 264 -45 140 -120 373 -166 518 l-85 262 -109 0 -109 0 217 -645z"/>
<path class="shape" d="M8525 1814 c-11 -2 -45 -9 -75 -15 -166 -34 -312 -154 -380 -315 -54
-124 -77 -307 -60 -464 32 -293 160 -460 392 -515 83 -19 257 -19 333 0 94 24
177 70 229 125 52 56 102 152 112 217 7 47 17 41 -106 66 l-66 14 -17 -58
c-24 -82 -70 -138 -142 -174 -55 -28 -68 -30 -165 -30 -91 1 -112 4 -160 26
-30 14 -69 38 -86 52 -42 36 -92 133 -109 214 -19 87 -19 279 -1 364 42 194
164 305 350 316 189 12 299 -72 322 -246 l7 -52 36 5 c20 3 62 8 94 12 66 7
66 7 43 115 -46 216 -196 333 -441 344 -49 2 -99 2 -110 -1z"/>
<path class="shape" d="M7090 1155 l0 -645 395 0 395 0 0 85 0 85 -295 0 -295 0 0 195 0 195
270 0 270 0 0 85 0 85 -270 0 -270 0 0 190 0 190 285 0 285 0 0 90 0 90 -385
0 -385 0 0 -645z"/>
</g>
</svg>
