<?xml version="1.0" standalone="no"?>
<!DOCTYPE svg PUBLIC "-//W3C//DTD SVG 20010904//EN"
 "http://www.w3.org/TR/2001/REC-SVG-20010904/DTD/svg10.dtd">
<svg version="1.0" xmlns="http://www.w3.org/2000/svg"
 width="1182.000000pt" height="1182.000000pt" viewBox="0 0 1182.000000 1182.000000"
 preserveAspectRatio="xMidYMid meet">
<g transform="translate(0.000000,1182.000000) scale(0.100000,-0.100000)"
fill="#D01916" stroke="none">
<path class="shape" d="M2785 8260 c-207 -37 -335 -175 -335 -359 0 -94 24 -162 78 -223 57
-63 126 -97 299 -149 163 -49 219 -75 261 -123 75 -85 45 -212 -63 -266 -44
-22 -63 -25 -155 -25 -119 1 -163 16 -217 79 -28 31 -73 129 -73 157 0 7 -12
9 -32 5 -18 -3 -56 -8 -84 -12 -77 -9 -78 -11 -60 -88 20 -86 48 -141 100
-194 81 -85 190 -122 361 -122 180 0 288 40 378 140 61 68 82 131 82 245 0 78
-4 97 -28 147 -50 101 -126 148 -357 222 -176 56 -242 91 -270 146 -42 82 -14
182 63 222 51 26 194 37 251 18 74 -24 128 -93 142 -180 l7 -42 66 6 c127 13
124 11 116 65 -25 164 -113 274 -255 316 -67 20 -207 27 -275 15z m272 -55
c66 -20 130 -68 165 -125 29 -47 60 -150 49 -162 -3 -4 -28 -8 -54 -10 l-48
-3 -18 54 c-42 123 -117 171 -267 171 -131 0 -218 -42 -255 -125 -35 -75 -19
-168 39 -228 39 -41 99 -69 252 -117 211 -66 297 -117 343 -204 18 -34 22 -57
22 -136 0 -84 -3 -102 -28 -152 -44 -90 -130 -152 -248 -178 -80 -18 -289 -8
-352 16 -107 42 -196 146 -213 250 -5 37 -4 42 17 47 47 13 89 8 95 -10 45
-144 130 -210 283 -220 138 -10 260 38 301 116 61 121 18 247 -106 309 -22 11
-103 39 -180 62 -286 86 -364 159 -364 345 0 60 5 82 31 133 47 94 142 160
261 181 70 13 210 6 275 -14z"/>
<path class="shape" d="M778 8245 c-5 -5 -8 -296 -8 -647 l0 -638 253 0 c218 0 263 3 336 20
233 56 377 199 437 435 24 95 24 314 1 405 -42 162 -138 290 -260 350 -124 60
-194 71 -487 77 -146 3 -268 2 -272 -2z m615 -64 c193 -51 312 -170 364 -364
23 -85 23 -307 0 -397 -57 -219 -204 -360 -419 -404 -57 -12 -136 -16 -303
-16 l-225 0 0 598 c0 329 3 602 8 606 4 5 117 6 252 3 205 -4 258 -9 323 -26z"/>
<path class="shape" d="M930 7599 l0 -511 178 4 c141 4 190 10 239 26 158 51 256 162 292
330 15 73 14 253 -3 333 -27 128 -97 228 -190 274 -83 41 -173 55 -353 55
l-163 0 0 -511z m394 456 c114 -24 191 -82 239 -180 33 -67 47 -146 47 -275 0
-168 -39 -280 -126 -360 -88 -81 -187 -110 -386 -110 l-128 0 0 470 0 470 143
0 c85 0 169 -6 211 -15z"/>
<path class="shape" d="M2030 7605 l0 -645 100 0 100 0 0 645 0 645 -100 0 -100 0 0 -645z
m160 0 l0 -605 -60 0 -60 0 0 605 0 605 60 0 60 0 0 -605z"/>
<path class="shape" d="M3530 7606 l0 -646 95 0 95 0 2 258 3 257 124 0 124 0 141 -257 141
-257 108 -1 c59 0 107 2 107 5 0 3 -68 129 -151 281 -83 151 -149 276 -148
278 2 1 28 17 57 35 116 73 165 168 165 321 1 185 -72 286 -243 342 -58 18
-96 21 -342 26 l-278 4 0 -646z m529 594 c134 -18 221 -72 268 -168 25 -51 28
-67 27 -152 0 -76 -5 -105 -23 -147 -28 -63 -103 -136 -169 -165 -26 -11 -48
-21 -49 -23 -2 -1 64 -124 146 -274 l149 -272 -65 3 -65 3 -130 235 c-71 129
-136 245 -144 258 -14 22 -18 22 -167 20 l-152 -3 -3 -257 -2 -258 -55 0 -55
0 0 605 0 605 208 0 c114 0 240 -5 281 -10z"/>
<path class="shape" d="M3680 7859 l0 -251 188 4 c164 3 192 6 232 24 91 43 130 115 130 238
-1 184 -86 236 -387 236 l-163 0 0 -251z m370 200 c97 -21 140 -79 140 -190 0
-97 -25 -149 -88 -187 -45 -26 -53 -27 -214 -30 l-168 -4 0 211 0 211 140 0
c76 0 162 -5 190 -11z"/>
<path class="shape" d="M4594 8235 c-3 -8 -4 -225 -1 -482 3 -378 7 -478 19 -518 48 -160
129 -240 285 -280 83 -22 271 -20 354 3 128 36 223 117 270 229 l24 58 3 503
3 502 -95 0 -95 0 -3 -478 -3 -478 -30 -60 c-27 -51 -38 -62 -89 -89 -54 -27
-68 -30 -155 -30 -87 0 -102 3 -156 30 -63 31 -95 69 -117 134 -8 25 -13 177
-15 504 l-4 467 -95 0 c-74 0 -96 -3 -100 -15z m156 -432 c0 -416 6 -504 39
-578 51 -113 191 -171 357 -146 123 18 188 64 226 160 22 55 23 68 26 514 l3
457 55 0 54 0 0 -459 c0 -432 -1 -463 -20 -524 -38 -123 -134 -207 -271 -237
-81 -18 -301 -9 -359 15 -108 44 -166 105 -203 217 -20 59 -21 88 -25 511 -2
246 -1 455 2 462 4 11 22 15 61 15 l55 0 0 -407z"/>
<path class="shape" d="M5840 7606 l0 -646 95 0 95 0 0 224 0 223 163 6 c166 5 228 17 310
59 133 68 206 219 194 408 -9 149 -63 247 -167 304 -95 52 -134 57 -422 63
l-268 5 0 -646z m601 575 c84 -27 148 -82 186 -159 26 -52 28 -66 28 -172 0
-142 -17 -198 -82 -270 -88 -98 -192 -130 -430 -130 l-153 0 0 -225 0 -225
-55 0 -55 0 0 606 0 606 248 -4 c216 -5 255 -8 313 -27z"/>
<path class="shape" d="M5990 7831 l0 -281 154 0 c125 0 166 4 218 20 116 36 170 118 171
265 2 133 -36 202 -135 246 -48 21 -71 24 -230 27 l-178 4 0 -281z m350 228
c57 -12 111 -53 137 -103 27 -50 23 -188 -6 -248 -44 -92 -112 -118 -308 -118
l-133 0 0 240 0 240 130 0 c71 0 152 -5 180 -11z"/>
<path class="shape" d="M6760 8160 l0 -90 188 -2 187 -3 3 -1532 2 -1533 1930 0 1930 0 0
1625 0 1625 -790 0 -790 0 0 -645 0 -645 395 0 395 0 0 85 0 85 -295 0 -295 0
0 195 0 195 265 0 265 0 0 85 0 85 -265 0 -265 0 0 190 0 190 590 0 590 0 0
-930 0 -930 -280 0 -280 0 -2 268 -3 267 -97 3 -98 3 0 -776 0 -775 -1355 0
-1355 0 2 1433 3 1432 188 3 187 2 0 90 0 90 -475 0 -475 0 0 -90z m910 0 l0
-50 -187 -2 -188 -3 -3 -1472 -2 -1473 1395 0 1395 0 0 775 0 776 58 -3 57 -3
3 -267 2 -268 320 0 320 0 0 970 0 970 -630 0 -630 0 0 -230 0 -230 265 0 265
0 0 -45 0 -45 -265 0 -265 0 0 -235 0 -235 295 0 295 0 0 -45 0 -45 -355 0
-355 0 0 605 0 605 750 0 750 0 0 -1585 0 -1585 -1890 0 -1890 0 -2 1533 -3
1532 -187 3 -188 2 0 50 0 50 435 0 435 0 0 -50z"/>
<path class="shape" d="M10200 5610 l0 -450 320 0 320 0 0 450 0 450 -320 0 -320 0 0 -450z
m600 0 l0 -410 -280 0 -280 0 0 410 0 410 280 0 280 0 0 -410z"/>
<path class="shape" d="M7860 7605 l0 -645 100 0 100 0 -2 643 -3 642 -97 3 -98 3 0 -646z
m158 -2 l2 -603 -60 0 -60 0 0 605 0 606 58 -3 57 -3 3 -602z"/>
<path class="shape" d="M8408 7605 l217 -645 124 2 123 3 204 635 c112 349 204 638 204 643
0 4 -45 7 -100 7 l-99 0 -26 -82 c-146 -477 -303 -969 -307 -962 -3 5 -42 124
-88 264 -45 140 -120 373 -166 518 l-85 262 -109 0 -109 0 217 -645z m151 53
c134 -415 180 -548 192 -548 12 0 55 127 186 548 l171 547 61 3 c33 2 61 2 61
0 0 -2 -87 -273 -193 -603 l-192 -600 -96 -3 -96 -3 -197 583 c-108 321 -199
593 -203 606 -5 22 -4 23 62 20 l68 -3 176 -547z"/>
<path class="shape" d="M9285 6764 c-11 -2 -45 -9 -75 -15 -166 -34 -312 -154 -380 -315 -54
-124 -77 -307 -60 -464 32 -293 160 -460 392 -515 83 -19 257 -19 333 0 94 24
177 70 229 125 52 56 102 152 112 217 7 47 17 41 -106 66 l-66 14 -17 -58
c-24 -82 -70 -138 -142 -174 -55 -28 -68 -30 -165 -30 -91 1 -112 4 -160 26
-30 14 -69 38 -86 52 -42 36 -92 133 -109 214 -19 87 -19 279 -1 364 42 194
164 305 350 316 189 12 299 -72 322 -246 l7 -52 36 5 c20 3 62 8 94 12 66 7
66 7 43 115 -46 216 -196 333 -441 344 -49 2 -99 2 -110 -1z m185 -45 c136
-22 245 -99 294 -209 29 -65 49 -151 37 -163 -5 -5 -30 -7 -56 -5 l-48 3 -14
55 c-29 115 -87 178 -194 211 -150 47 -344 0 -436 -106 -82 -94 -123 -231
-123 -415 0 -316 111 -479 347 -513 136 -20 278 22 344 103 16 19 39 61 51 93
11 31 22 57 24 57 2 0 26 -5 54 -11 58 -12 58 -11 11 -114 -69 -149 -213 -225
-428 -225 -178 0 -279 35 -374 129 -109 110 -153 246 -152 476 1 157 20 254
73 360 104 210 332 316 590 274z"/>
<path class="shape" d="M7850 6105 l0 -645 395 0 395 0 0 85 0 85 -295 0 -295 0 0 195 0 195
270 0 270 0 0 85 0 85 -270 0 -270 0 0 190 0 190 285 0 285 0 0 90 0 90 -385
0 -385 0 0 -645z m730 555 l0 -50 -285 0 -285 0 0 -230 0 -230 270 0 270 0 0
-45 0 -45 -270 0 -270 0 0 -235 0 -235 295 0 295 0 0 -45 0 -45 -355 0 -355 0
0 605 0 605 345 0 345 0 0 -50z"/>
</g>
</svg>
